<?xml version="1.0" encoding="utf-8"?>
<!-- Generator: Adobe Illustrator 18.1.1, SVG Export Plug-In . SVG Version: 6.00 Build 0)  -->
<svg version="1.1" id="Layer_1" xmlns="http://www.w3.org/2000/svg" xmlns:xlink="http://www.w3.org/1999/xlink" x="0px" y="0px"
	 viewBox="-215 347 180 100" enable-background="new -215 347 180 100" xml:space="preserve">
<path fill="#FFFFFF" d="M-49.8,426.1c0,3.8-3.1,7-7,7h-7v-72.2h7c3.9,0,7,3.1,7,7V426.1z M-56.7,347h-19.7c-0.7,0-1.3,0.6-1.3,1.3
	v97.5c0,0.7,0.6,1.3,1.3,1.3h19.7c11.6,0,21-9.4,21-20.9v-58.2C-35.8,356.4-45.2,347-56.7,347z M-95.5,426.1c0,3.8-3.1,7-7,7
	s-7-3.1-7-7v-58.2c0-3.8,3.1-7,7-7s7,3.1,7,7V426.1z M-102.5,347c-11.6,0-21,9.4-21,20.9v58.2c0,11.5,9.4,20.9,21,20.9
	s21-9.4,21-20.9v-58.2C-81.5,356.4-90.9,347-102.5,347z M-194,347c-11.6,0-21,9.4-21,20.9v58.2c0,11.5,9.4,20.9,21,20.9
	c4.9,0,9.4-1.7,13-4.5l1.6,4.5h5.1c0.7,0,1.3-0.6,1.3-1.3v-57c0-0.7-0.6-1.3-1.3-1.3h-19.1c-0.7,0-1.3,0.6-1.3,1.3v11.4
	c0,0.7,0.6,1.3,1.3,1.3h6.4v24.7c0,3.8-3.1,7-7,7s-7-3.1-7-7v-58.2c0-3.8,3.1-7,7-7c3.9,0,7,3.1,7,7v4.4c0,0.7,0.6,1.3,1.3,1.3h11.4
	c0.7,0,1.3-0.6,1.3-1.3v-4.4C-173.1,356.4-182.5,347-194,347z M-141.3,426.1c0,3.8-3.1,7-7,7c-3.9,0-7-3.1-7-7v-58.2
	c0-3.8,3.1-7,7-7c3.9,0,7,3.1,7,7V426.1z M-148.3,347c-11.6,0-21,9.4-21,20.9v58.2c0,11.5,9.4,20.9,21,20.9c11.6,0,21-9.4,21-20.9
	v-58.2C-127.3,356.4-136.7,347-148.3,347z"/>
</svg>
