<?xml version="1.0" encoding="utf-8"?>
<!-- Generator: Adobe Illustrator 18.1.1, SVG Export Plug-In . SVG Version: 6.00 Build 0)  -->
<svg version="1.1" id="Layer_1" xmlns="http://www.w3.org/2000/svg" xmlns:xlink="http://www.w3.org/1999/xlink" x="0px" y="0px"
	 viewBox="0 345.7 593.2 100.5" enable-background="new 0 345.7 593.2 100.5" xml:space="preserve">
<path fill="#FFFFFF" d="M138.2,354.5V435c0,3-0.7,6.3-3,8.8h60.8v-30.5c-4.2,1.9-9.4,2.9-14.5,2.9h-13.2v-10.1h6.9
	c3.8,0,7.1,0.4,10.7,1.9v-26.4c-3.6,1.5-6.9,1.9-10.7,1.9l-6.9,0v-11.3h13.2c5,0,10.2,1,14.5,2.9v-29.3h-61
	C137.5,347.8,138.2,351.5,138.2,354.5z M101.8,383.4H85.5v-10.1h1.3c3.4,0,7.4,0.6,10,1.9v-29.6H54.1v98h34.5
	c-2.3-2-3.1-5.8-3.1-8.8v-27.6h16.3V435c0,3-0.8,6.8-3.1,8.8h34.6v-98l-31.4,0C101.8,345.7,101.8,383.4,101.8,383.4z M0,375.3
	c2.8-1.4,6.8-1.9,10.2-1.9h7.4V435c0,3-0.8,6.8-3.1,8.8H49v-98l-49,0C0,345.7,0,375.3,0,375.3z M530.3,423.3v-39.9h-37.6
	c-1.9,0-4.1-0.2-6.3-0.9v24.4c2.2-0.7,4.4-0.9,6.3-0.9h10v7.5c-1.2,1.1-3.9,1.7-6.7,1.7c-11.4,0-19.8-9-19.8-19.9
	c0-10.9,8.2-20.7,19.6-20.7c6.9,0,14.7,2.3,23.3,6.3v-35.2h-25.1c-27.1,0-48.8,21-48.8,49.4c0,27.8,21.8,51.1,50,51.1
	c15.6,0,30.1-6.3,37.6-14.1C531.3,429.4,530.3,426.7,530.3,423.3L530.3,423.3z M578.8,372.1c5,0,10.2,1,14.5,2.9v-29.3h-61
	c2.3,2,3.1,5.8,3.1,8.8V435c0,3-0.7,6.3-3,8.8h60.8v-30.5c-4.2,1.9-9.4,2.9-14.5,2.9h-13.2v-10.1h6.9c3.8,0,7.1,0.4,10.7,1.9v-26.4
	c-3.6,1.5-6.9,1.9-10.7,1.9l-6.9,0v-11.3H578.8z M433,399.5c5.2-5.8,8.4-13.4,8.4-21.1c0-22.6-16.8-32.7-34.9-32.7l-38.9,0
	c2.3,2,3.1,5.7,3.1,8.8l0,80.5c0,3-0.8,6.3-3.1,8.8h37.4c-2.3-2.5-2.9-5.9-2.9-8.8v-20c10.7,2,17.9,12,17.9,20c0,3-0.7,6.3-3.1,8.8
	h37.3c-2.3-2.5-2.9-6.1-3.2-9.1C449.9,417.4,444,405.2,433,399.5L433,399.5z M402.2,389.8V372c5,0,11.4,1.4,11.4,8.9
	S407.2,389.8,402.2,389.8z M265.2,399.8l-10.1-27.6h15.1l10.1-26.4h-70.4c2.2,2.2,4.3,4.7,5.8,7.6l38.9,90.4h21.3l32.1-75.4V435
	c0,3.1-0.8,6.8-3.1,8.8h61v-30.5c-4.2,1.9-9.4,4.1-14.5,4.1h-13.2v-11.3h6.9c3.8,0,7.1,0.4,10.7,1.9v-26.4
	c-3.6,1.5-6.9,1.9-10.7,1.9h-6.9v-10.1h13.2c5,0,10.3,1,14.5,2.9v-30.5l-80.4,0L265.2,399.8z"/>
</svg>
