<?xml version="1.0" encoding="UTF-8" standalone="no"?>
<svg width="40px" height="40px" viewBox="0 0 40 40" version="1.1" xmlns="http://www.w3.org/2000/svg" xmlns:xlink="http://www.w3.org/1999/xlink" xmlns:sketch="http://www.bohemiancoding.com/sketch/ns">
    <!-- Generator: Sketch 3.4.4 (17249) - http://www.bohemiancoding.com/sketch -->
    <title>Desktop HD</title>
    <desc>Created with Sketch.</desc>
    <defs>
        <path id="path-1" d="M0,0.465806452 L32.9903337,0.465806452 L32.9903337,40 L0,40 L0,0.465806452 Z"></path>
    </defs>
    <g id="Page-1" stroke="none" stroke-width="1" fill="none" fill-rule="evenodd" sketch:type="MSPage">
        <g id="Desktop-HD" sketch:type="MSArtboardGroup">
            <g id="Page-1" sketch:type="MSLayerGroup" transform="translate(3.000000, 0.000000)">
                <mask id="mask-2" sketch:name="Clip 2" fill="white">
                    <use xlink:href="#path-1"></use>
                </mask>
                <g id="Clip-2"></g>
                <path d="M22.9476469,32.1329032 L22.9476469,37.1135484 C22.9476469,38.7006452 21.86082,40 20.5317714,40 C19.2027228,40 18.1158959,38.7006452 18.1158959,37.1135484 L18.1158959,32.1329032 L22.9476469,32.1329032 Z M14.8972649,32.1354839 L14.8972649,37.1135484 C14.8972649,38.7006452 13.810438,40 12.4813894,40 C11.1523408,40 10.0667821,38.7006452 10.0667821,37.1135484 L10.0667821,32.1393548 L14.8972649,32.1354839 Z M5.65226098,13.6851613 L5.65226098,29.7767742 L5.66113821,29.7767742 C5.77146953,31.1354839 7.0003322,32.2154839 8.48917096,32.2154839 L24.3933677,32.2154839 C25.8809383,32.2154839 27.109801,31.1354839 27.2214005,29.7767742 L27.2302777,29.7767742 L27.2302777,13.6851613 L5.65352915,13.6851613 L5.65226098,13.6851613 Z M21.3915948,8.86709677 C20.8703744,8.86709677 20.4480718,8.43741935 20.4480718,7.90709677 C20.4480718,7.37677419 20.8703744,6.94709677 21.3915948,6.94709677 C21.9128152,6.94709677 22.3351179,7.37677419 22.3351179,7.90709677 C22.3351179,8.43741935 21.9128152,8.86709677 21.3915948,8.86709677 L21.3915948,8.86709677 Z M11.5454754,8.86709677 C11.024255,8.86709677 10.6019524,8.43741935 10.6019524,7.90709677 C10.6019524,7.37677419 11.024255,6.94709677 11.5454754,6.94709677 C12.0666958,6.94709677 12.4889985,7.37677419 12.4889985,7.90709677 C12.4889985,8.43741935 12.0666958,8.86709677 11.5454754,8.86709677 L11.5454754,8.86709677 Z M21.7758522,3.92774194 L23.3255634,1.09806452 C23.452381,0.867096774 23.4143358,0.597419355 23.243132,0.500645161 C23.0719282,0.403870968 22.825902,0.512258065 22.7003526,0.743225806 L21.1151324,3.63870968 C19.7011161,3.07225806 18.1171641,2.75612903 16.4431716,2.75612903 C14.7564974,2.75612903 13.1611318,3.07870968 11.7382382,3.65290323 L10.145409,0.744516129 C10.0185914,0.513548387 9.77383338,0.403870968 9.6026296,0.501935484 C9.43142582,0.6 9.39338054,0.868387097 9.52019815,1.09935484 L11.0775184,3.94322581 C7.83732844,5.4916129 5.65479733,8.39870968 5.65479733,11.7303226 C5.65479733,12.0683871 5.67889268,12.4025806 5.72201067,12.7316129 L27.1656007,12.7316129 C27.2099869,12.4025806 27.2328141,12.0696774 27.2328141,11.7303226 C27.2328141,8.3883871 25.036333,5.47354839 21.7783886,3.92903226 L21.7758522,3.92774194 Z M32.9903337,25.3909677 C32.9903337,26.9780645 31.9035067,28.2774194 30.5744581,28.2774194 C29.2454096,28.2774194 28.1585826,26.9793548 28.1585826,25.3909677 L28.1585826,15.9445161 C28.1585826,14.3574194 29.2454096,13.0580645 30.5744581,13.0580645 C31.9035067,13.0580645 32.9903337,14.3574194 32.9903337,15.9445161 L32.9903337,25.3909677 Z M4.83048285,25.3909677 C4.83048285,26.9780645 3.74365591,28.2774194 2.41587551,28.2774194 C1.08809511,28.2774194 0,26.9793548 0,25.3909677 L0,15.9445161 C0,14.3574194 1.08682694,13.0580645 2.41587551,13.0580645 C3.74492409,13.0580645 4.83048285,14.3574194 4.83048285,15.9445161 L4.83048285,25.3909677 Z" id="Fill-1" fill="#FFFFFF" sketch:type="MSShapeGroup" mask="url(#mask-2)"></path>
            </g>
        </g>
    </g>
</svg>