<?xml version="1.0" encoding="UTF-8" standalone="no"?>
<svg width="40px" height="40px" viewBox="0 0 40 40" version="1.1" xmlns="http://www.w3.org/2000/svg" xmlns:xlink="http://www.w3.org/1999/xlink" xmlns:sketch="http://www.bohemiancoding.com/sketch/ns">
    <!-- Generator: Sketch 3.4.4 (17249) - http://www.bohemiancoding.com/sketch -->
    <title>Desktop HD</title>
    <desc>Created with Sketch.</desc>
    <defs></defs>
    <g id="Page-1" stroke="none" stroke-width="1" fill="none" fill-rule="evenodd" sketch:type="MSPage">
        <g id="Desktop-HD" sketch:type="MSArtboardGroup" fill="#FFFFFF">
            <g id="earth" sketch:type="MSLayerGroup">
                <g id="Layer_1" sketch:type="MSShapeGroup">
                    <g id="Group">
                        <path d="M29.0424107,8.35044643 C28.8451786,7.99455357 28.194375,7.29357143 27.7944643,7.16071429 C27.260625,7.07848214 27.5803571,7.55473214 27.5803571,7.75892857 C27.4425893,7.86223214 27.2284821,7.97803571 27.1248214,8.11607143 C27.0624107,8.16964286 27.2769643,8.66098214 27.690625,8.503125 C28.1042857,8.34526786 27.8659821,8.66375 28.1516964,9.29464286 C28.4374107,9.92553571 29.0094643,9.938125 29.266875,9.74705357 C29.5932143,9.50491071 29.2219643,8.67455357 29.0424107,8.35044643 L29.0424107,8.35044643 Z" id="Shape"></path>
                        <path id="Shape" d="M30.7011103,12.375 C30.7000847,12.3811538 30.6970078,12.3862821 30.6959821,12.3924359 C30.6959821,12.4047436 30.6980334,12.4047436 30.7011103,12.375 L30.7011103,12.375 Z"></path>
                        <path id="Shape" d="M35.9782272,14.8277625 C36.0316513,14.8277625 35.7378186,14.5969933 35.9782272,14.8277625 L35.9782272,14.8277625 L35.9782272,14.8277625 Z"></path>
                        <path d="M20,0 C8.95535714,0 0,8.95535714 0,20 C0,31.0447321 8.95535714,40 20,40 C31.0447321,40 40,31.0447321 40,20 C40,8.95535714 31.0447321,0 20,0 L20,0 Z M12.6249107,35.4842857 C12.1325,35.2045536 11.7879464,34.8092857 11.64625,34.0620536 C11.2938393,32.2041964 11.6191964,31.1989286 13.25,30.1116071 C14.0182143,29.5994643 14.1448214,28.9801786 14.7589286,28.3660714 C14.909375,28.175 15.3134821,27.4398214 15.5803571,27.4017857 C15.9050893,27.3322321 16.804375,27.1761607 16.9821429,26.8214286 C17.3205357,26.3619643 18.0649107,24.3751786 18.3928571,24.1783929 C18.9283036,23.8279464 19.6802679,22.7533929 19.1339286,22.1158929 C18.5070536,21.3441964 17.6340179,21.3332143 16.8214286,20.9283036 C16.1058036,20.5704464 15.7880357,18.9389286 15.2410714,18.3746429 C14.1775,17.2910714 12.5625893,16.6604464 11.2232143,15.9907143 C10.4985714,15.7005357 10.5675,15.6107143 10,16.1782143 C9.27125,16.9069643 8.20598214,15.9936607 8.09821429,15.2407143 C8.09017857,14.9905357 7.80392857,13.6142857 7.97321429,13.5085714 C9.57642857,12.5063393 7.22964286,12.7371429 7.03571429,12.2764286 C6.55758929,10.9377679 8.19714286,9.87821429 9.30357143,9.7675 C10.5433036,9.61232143 10.8021429,11.7224107 11.2767857,11.5442857 C11.505,11.4303571 11.5058929,10.4376786 11.5357143,10.2228571 C11.6488393,9.50598214 11.8560714,9.39491071 12.5535714,9.13580357 C13.3658929,8.83410714 13.9877679,8.45571429 14.8482143,8.31214286 C15.8308929,8.026875 16.6622321,8.17526786 17.4196429,7.54428571 C17.7667857,7.28401786 18.0182143,7.68535714 18.3482143,7.75857143 C19.0624107,7.90133929 19.2142857,6.7675 19.2142857,6.33892857 C19.21125,5.92241071 19.3272321,5.56839286 18.7946429,5.12464286 C18.0976786,4.58276786 17.095625,5.04705357 16.5357143,5.60678571 C15.8594643,6.23491071 15.0752679,6.19160714 15.3035714,5.10678571 C15.3601786,4.71098214 16.2150893,4.25080357 16.5535714,4.03535714 C16.8839286,3.83696429 17.0807143,4.26053571 17.4821429,4.16035714 C18.0695536,4.02973214 18.28875,4.583125 18.9821429,4.58892857 C19.2708036,4.52366071 20.3032143,3.97455357 19.75125,2.85982143 C19.8341964,2.85901786 19.9169643,2.85714286 20,2.85714286 C20.165625,2.85714286 20.3309821,2.86017857 20.4959821,2.86482143 C20.7464286,3.65776786 19.9633929,4.33294643 20.3571429,5.33035714 C21.1419643,7.24776786 21.785,5.59946429 22.5625,4.70535714 C22.816875,4.45098214 22.9761607,4.50794643 23.3928571,4.42857143 C23.6514286,4.38544643 24.0227679,3.60089286 24.1422321,3.35875 C25.933125,3.80125 27.6351786,4.53080357 29.1928571,5.524375 C28.5279464,5.59508929 28.3582143,5.39973214 28.3683929,6.18303571 C28.3721429,6.47919643 28.3949107,7.37223214 28.8392857,7.44642857 C29.5783036,7.53348214 29.4447321,8.05642857 30.1384821,8.14732143 C30.8030357,8.23446429 30.3899107,8.82169643 30.6608929,9.40178571 C30.9638393,10.3149107 28.8925,10.5894643 28.4910714,10.7232143 C27.2732143,11.1298214 29.0571429,12.9026786 29.8482143,12.7142857 C30.0997321,12.6514286 30.9388393,12.5444643 30.9970536,12.261875 C30.9960714,12.2330357 30.833125,11.2786607 30.9196429,11.1696429 C31.0565179,10.9969643 31.3770536,10.9066071 31.8817857,11.1924107 C33.0758929,11.8685714 33.6805357,13.4870536 35.086875,13.8080357 C35.2784821,13.8516964 35.6100893,13.7946429 35.8452679,13.9895536 C36.0444643,14.25875 36.5524107,14.7409821 35.94625,14.7409821 C35.1411607,14.5621429 34.7158929,14.8176786 34.0535714,14.3058036 C33.363125,13.7721429 32.9336607,13.3333929 32.0223214,13.316875 C31.2375,13.3026786 30.5330357,12.9758929 29.7242857,13.1070536 C29.2733929,13.1801786 28.8280357,13.3580357 28.3928571,13.4909821 C27.980625,13.6283036 27.9008929,14.3628571 27.4821429,14.4463393 C25.7440179,14.8553571 26.1195536,16.515 25.8059821,17.8314286 C25.6853571,18.3369643 25.2680357,19.7066964 25.7233036,20.160625 C26.5375893,20.9511607 27.4896429,22.03875 28.6854464,22.2108929 C29.3288393,22.3034821 30.7349107,21.8023214 31.1696429,22.4552679 C31.35375,22.8216964 31.8345536,22.1847321 31.9642857,22.5089286 C32.2913393,23.49 31.5836607,24.1326786 31.5770536,25.058125 C31.5672321,26.4155357 32.3965179,26.8947321 31.2857143,28.1070536 C30.0676786,29.3219643 30.8988393,30.8559821 30.2232143,32.3034821 C29.8623214,33.0478571 29.7939286,34.0797321 29.2525,34.4264286 C28.063125,35.1882143 26.7792857,35.8013393 25.43875,36.2464286 C23.0613393,37.0355357 20.5141964,37.2885714 18.0265179,37.0014286 C16.72125,36.8507143 15.4335714,36.5499107 14.1979464,36.1027679 C13.8614286,35.9810714 13.5479464,35.8791071 13.2629464,35.7720536 C13.0484821,35.6802679 12.835625,35.5848214 12.6249107,35.4842857 L12.6249107,35.4842857 Z M8.90169643,33.0650893 C8.85991071,33.0296429 8.81821429,32.9940179 8.77678571,32.958125 C8.46928571,32.6909821 8.16946429,32.4123214 7.87857143,32.1214286 C7.57607143,31.8189286 7.28625,31.5070536 7.00946429,31.1865179 C7.00633929,31.1828571 7.00321429,31.1791964 7.00008929,31.1755357 C6.94321429,31.1096429 6.88785714,31.0428571 6.83205357,30.9760714 C2.21732143,25.3991964 1.54098214,17.2325 5.41071429,10.9910714 C5.95339286,11.53375 5.04455357,12.6003571 6.08035714,13.3125 C6.53785714,13.6344643 6.97508929,13.5052679 6.88392857,14.0982143 C6.79526786,14.6740179 7.36205357,14.6638393 7.44642857,15.1696429 C7.70017857,16.279375 9.16133929,16.8341071 8.33035714,18.0803571 C7.51625,19.2075893 6.81321429,20.466875 7.42857143,21.9017857 C7.62982143,22.425 8.135625,22.9605357 8.51982143,23.3521429 C9.21741071,24.0633929 9.17848214,23.6367857 9.17848214,24.5357143 C9.16455357,24.9261607 9.64821429,25.3300893 9.598125,25.5803571 C9.50875,26.295625 9.33883929,27.0026786 9.24991071,27.7142857 C9.08991071,30.27125 9.23839286,32.7733929 11.1516964,34.6875 C10.4401786,34.2583929 9.755625,33.7724107 9.10098214,33.2330357 C9.03419643,33.1777679 8.96785714,33.1215179 8.90169643,33.0650893 L8.90169643,33.0650893 Z" id="Shape"></path>
                    </g>
                </g>
            </g>
        </g>
    </g>
</svg>