<?xml version="1.0" encoding="UTF-8" standalone="no"?>
<svg width="40px" height="40px" viewBox="0 0 40 40" version="1.1" xmlns="http://www.w3.org/2000/svg" xmlns:xlink="http://www.w3.org/1999/xlink" xmlns:sketch="http://www.bohemiancoding.com/sketch/ns">
    <!-- Generator: Sketch 3.4.4 (17249) - http://www.bohemiancoding.com/sketch -->
    <title>Desktop HD</title>
    <desc>Created with Sketch.</desc>
    <defs>
        <path id="path-1" d="M0,0.4095 L31.9238095,0.4095 L31.9238095,39 L0,39 L0,0.4095 Z"></path>
    </defs>
    <g id="Page-1" stroke="none" stroke-width="1" fill="none" fill-rule="evenodd" sketch:type="MSPage">
        <g id="Desktop-HD" sketch:type="MSArtboardGroup">
            <g id="Page-1" sketch:type="MSLayerGroup" transform="translate(4.000000, 1.000000)">
                <mask id="mask-2" sketch:name="Clip 2" fill="white">
                    <use xlink:href="#path-1"></use>
                </mask>
                <g id="Clip-2"></g>
                <path d="M21.7264762,6.57195 C23.0933333,4.93845 24.0182857,2.66895 23.768381,0.40995 C21.7965714,0.48945 19.4087619,1.69995 17.9931429,3.33195 C16.7253333,4.77945 15.6144762,7.08495 15.9131429,9.30345 C18.1135238,9.47145 20.3565714,8.20245 21.728,6.57195 L21.7264762,6.57195 Z M26.663619,20.91645 C26.6133333,16.02795 30.712381,13.68345 30.8952381,13.56495 C28.5912381,10.24845 25.0026667,9.79395 23.7257143,9.74295 C20.6750476,9.43695 17.767619,11.51295 16.2194286,11.51295 C14.6742857,11.51295 12.2834286,9.78795 9.75238095,9.83145 C6.42285714,9.88095 3.35390476,11.73795 1.64114286,14.67195 C-1.81638095,20.57595 0.757333333,29.32545 4.12647619,34.11645 C5.77371429,36.45795 7.73790476,39.09345 10.3146667,38.99745 C12.7984762,38.90145 13.735619,37.41495 16.7375238,37.41495 C19.7394286,37.41495 20.583619,38.99745 23.2106667,38.94645 C25.8819048,38.89845 27.5748571,36.55995 29.208381,34.20795 C31.0979048,31.48695 31.8765714,28.85295 31.9238095,28.71945 C31.8659048,28.69395 26.7184762,26.75145 26.6651429,20.91645 L26.663619,20.91645 Z" id="Fill-1" fill="#FFFFFF" sketch:type="MSShapeGroup" mask="url(#mask-2)"></path>
            </g>
        </g>
    </g>
</svg>