<?xml version="1.0" encoding="utf-8"?>
<!-- Generator: Adobe Illustrator 18.1.0, SVG Export Plug-In . SVG Version: 6.00 Build 0)  -->
<svg version="1.1" id="Layer_1" xmlns="http://www.w3.org/2000/svg" xmlns:xlink="http://www.w3.org/1999/xlink" x="0px" y="0px"
	 viewBox="190 381.3 651.9 214" enable-background="new 190 381.3 651.9 214" xml:space="preserve">
<g>
	<g>
		<path fill="#FFFFFF" d="M190,386h79.4c16.2,0,29.9,1.9,40.7,5.4c10.8,3.9,19.7,8.9,26,15.2c6.6,6.6,10.8,14,13.5,22.8
			c2.7,8.6,3.9,18.2,3.9,27.9c0,10.1-1.5,19.7-4.2,28.3c-2.7,8.9-7.4,16.2-13.5,22.8c-6.2,6.6-15.2,11.6-26,15.2
			c-10.8,3.9-24.4,5.4-40.3,5.4h-17v61.6h-62.4V386H190z M252.8,479.3h17.4c9.6,0,16.2-1.9,19.7-5.4c3.5-3.5,5.4-8.9,5.4-16.2
			c0-7.4-1.9-12.3-5.4-16.2c-3.5-3.9-10.1-5.4-19.7-5.4h-17.4L252.8,479.3L252.8,479.3z"/>
		<path fill="#FFFFFF" d="M505.2,540.9c-3.1,18.6-11.3,32.2-23.6,41c-12.3,8.9-29,13.2-50,13.2c-26.7,0-46.4-6.9-59.6-20.9
			c-13.2-14-19.7-32.9-19.7-57.7c0-12.8,1.9-24.4,5.4-34.4s8.6-18.9,15.5-26c6.9-6.9,15.2-12.3,24.8-16.2s20.6-5.4,32.9-5.4
			c12,0,22.8,1.9,32.2,5.4s17.4,8.9,23.6,15.5c6.6,6.9,11.3,15.2,14.3,24.8s5.1,20.6,5.1,32.2v15.5h-96c0.4,9.6,2.3,16.2,6.2,19.7
			c3.5,3.5,8.6,5.4,14.7,5.4c9.6,0,15.9-4.2,18.2-12.3h56.2V540.9z M431.7,476.6c-6.2,0-11.3,1.5-15.2,5.1s-5.8,8.9-6.2,16.2h39.9
			c-0.4-8.1-2.3-13.5-5.4-16.7C441.8,478.3,437.5,476.6,431.7,476.6z"/>
		<path fill="#FFFFFF" d="M604.1,590.9v-14.3c-6.2,6.2-12.8,10.8-19.7,14s-15.2,4.7-24.4,4.7c-6.2,0-12.3-0.8-18.6-2.7
			c-6.2-1.5-11.6-4.2-16.2-8.1s-8.6-8.6-11.6-14.3c-3-5.7-4.2-12.8-4.2-20.9c0-10.1,2.3-18.2,6.6-25.2c4.2-6.6,10.1-12,17.4-15.9
			c7.4-3.9,15.2-6.6,23.3-8.1s17.4-2.3,27.9-2.7l17.4-0.8v-4.7c0-5.8-1.2-9.6-3.5-12.3c-2.3-2.7-5.8-3.9-10.5-3.9
			c-4.2,0-7.8,1.2-10.5,3.1c-2.3,1.9-4.2,5.4-5.1,9.3l-55-3.9c2.3-16.2,9.6-28.7,21.7-36.8c12-8.1,28.7-12.3,50-12.3
			c13.2,0,24.4,1.5,33.3,4.7c8.9,3.1,15.9,7.4,21.7,12.8c5.4,5.4,9.3,12.3,11.6,20.1s3.5,16.7,3.5,26v92.6h-55.1V590.9z
			 M601.7,529.8l-15.9,0.8c-6.9,0.4-12.3,1.9-15.5,4.2c-3.5,2.3-5.1,5.8-5.1,10.1c0,3.5,1.2,6.2,3.5,8.1c2.3,1.9,5.8,2.7,10.1,2.7
			c6.6,0,12-1.9,16.7-6.2c4.2-4.2,6.6-9.6,6.6-16.2v-3.5L601.7,529.8L601.7,529.8z"/>
		<path fill="#FFFFFF" d="M744.7,527.4l-14,13.5v50h-58.5V386h58.5v94.1l38.8-40.7h68.2l-51.9,50.3L842,590.8h-64.3L744.7,527.4z"/>
	</g>
</g>
</svg>
