<?xml version="1.0" encoding="utf-8"?>
<!-- Generator: Adobe Illustrator 18.1.1, SVG Export Plug-In . SVG Version: 6.00 Build 0)  -->
<svg version="1.1" id="Layer_1" xmlns="http://www.w3.org/2000/svg" xmlns:xlink="http://www.w3.org/1999/xlink" x="0px" y="0px"
	 viewBox="0 0 54.3 21.7" enable-background="new 0 0 54.3 21.7" xml:space="preserve">
<g>
	<path fill="#FFFFFF" d="M0,2h4.1v8.5c0,2.8,0.7,3.8,2.3,3.8s2.4-1,2.4-3.8V2h4v8c0,5.3-2,7.8-6.4,7.8S0,15.3,0,10V2z"/>
	<path fill="#FFFFFF" d="M19.2,18.4v3.3h-4.1V5.6h3.3l0.3,1.1h0.1c0.9-0.8,2.1-1.4,3.2-1.4c2.8,0,4.6,2.4,4.6,6.1
		c0,4.1-2.4,6.5-5,6.5c-1,0-1.9-0.4-2.7-1.2L19.2,18.4z M20.7,14.5c1,0,1.8-0.8,1.8-3.1c0-2-0.6-2.8-1.7-2.8c-0.6,0-1.1,0.2-1.6,0.9
		v4.4C19.7,14.3,20.2,14.5,20.7,14.5z"/>
	<path fill="#FFFFFF" d="M28.6,2h10.1v3.4h-6v3h5.2v3.4h-5.2v5.7h-4.1V2z"/>
	<path fill="#FFFFFF" d="M40.1,2.1c0-1.2,1-2.1,2.3-2.1s2.3,0.9,2.3,2.1c0,1.2-1,2.1-2.3,2.1S40.1,3.2,40.1,2.1z M40.3,5.6h4.1v11.9
		h-4.1V5.6z"/>
	<path fill="#FFFFFF" d="M47,8.8h-1.6V5.7l1.8-0.1l0.5-3.1h3.4v3.1h2.7v3.2h-2.7v4.1c0,1.3,0.7,1.7,1.4,1.7c0.4,0,0.8-0.1,1.1-0.2
		l0.6,3c-0.6,0.2-1.5,0.4-2.8,0.4c-3.1,0-4.4-2-4.4-4.9V8.8z"/>
</g>
</svg>
