<?xml version="1.0" encoding="utf-8"?>
<!-- Generator: Adobe Illustrator 18.1.1, SVG Export Plug-In . SVG Version: 6.00 Build 0)  -->
<svg version="1.1" id="Layer_1" xmlns="http://www.w3.org/2000/svg" xmlns:xlink="http://www.w3.org/1999/xlink" x="0px" y="0px"
	 viewBox="0 14.8 300 135.2" enable-background="new 0 14.8 300 135.2" xml:space="preserve">
<g>
	<path fill="#FFFFFF" d="M0,49.6h25.6v42.5c0,9.5,2.4,11.9,7.4,11.9c4.8,0,7.4-1.8,10.7-6.5V49.6h25.6v74.3H48.4l-1.8-9.8h-0.6
		c-5.9,7.1-12.8,11.6-22.9,11.6C6.8,125.6,0,113.8,0,95.3V49.6z"/>
	<path fill="#FFFFFF" d="M107.5,129.5V150H82V49.6h20.8l1.8,6.8h0.6c5.5-5.1,12.8-8.6,20.2-8.6c17.5,0,28.8,14.9,28.8,37.7
		c0,25.6-15.2,40.1-30.9,40.1c-6.2,0-11.9-2.7-16.6-7.4L107.5,129.5z M117.1,104.8c5.9,0,11-4.8,11-19c0-12.2-3.6-17.2-10.4-17.2
		c-3.9,0-6.8,1.5-10.1,5.3v27.3C110.5,103.9,113.8,104.8,117.1,104.8z"/>
	<path fill="#FFFFFF" d="M208,40.1c-2.4-0.9-5.1-1.5-7.4-1.5c-4.8,0-7.7,2.2-7.7,9.2v1.8h12.5v19.9h-12.5v54.4h-25.6V69.5h-9.8v-19
		l9.8-0.7v-1c0-15.9,7.4-30,29.4-30c6.8,0,12.5,1.5,15.7,2.7L208,40.1z"/>
	<path fill="#FFFFFF" d="M210.3,27.6c0-7.4,5.9-12.8,14.3-12.8c8.3,0,14.3,5.3,14.3,12.8s-5.9,12.8-14.3,12.8
		C216.3,40.4,210.3,35,210.3,27.6z M211.8,49.6h25.6v74.3h-25.6V49.6z"/>
	<path fill="#FFFFFF" d="M253.4,69.5h-9.8v-19l11.3-0.9l3-19.3H279v19.3h16.9v19.9H279v25.4c0,8.2,4.2,10.8,8.9,10.8
		c2.4,0,4.8-0.6,6.5-1.2l3.9,18.4c-3.9,1.2-9.4,2.7-17.5,2.7c-19.3,0-27.3-12.2-27.3-30.3V69.5z"/>
</g>
</svg>
