<?xml version="1.0" encoding="UTF-8" standalone="no"?>
<svg width="351px" height="141px" viewBox="0 0 351 141" version="1.1" xmlns="http://www.w3.org/2000/svg" xmlns:xlink="http://www.w3.org/1999/xlink" xmlns:sketch="http://www.bohemiancoding.com/sketch/ns">
    <!-- Generator: Sketch 3.4.4 (17249) - http://www.bohemiancoding.com/sketch -->
    <title>Desktop HD</title>
    <desc>Created with Sketch.</desc>
    <defs></defs>
    <g id="Page-1" stroke="none" stroke-width="1" fill="none" fill-rule="evenodd" sketch:type="MSPage">
        <g id="Desktop-HD" sketch:type="MSArtboardGroup" fill="#FFFFFF">
            <path d="M8.192,34 L17.136,34 L17.136,7.688 L26.08,7.688 L26.08,0.2 L-0.752,0.2 L-0.752,7.688 L8.192,7.688 L8.192,34 Z M28.056,24.016 C28.056,30.464 30.448,34.624 36.168,34.624 C39.704,34.624 42.096,33.064 44.176,30.568 L44.384,30.568 L45.008,34 L52.288,34 L52.288,8 L43.344,8 L43.344,24.744 C42.2,26.408 41.264,27.032 39.6,27.032 C37.832,27.032 37,26.2 37,22.872 L37,8 L28.056,8 L28.056,24.016 Z M58.32,34 L67.264,34 L67.264,19.544 C68.512,16.32 70.8,15.176 72.672,15.176 C73.816,15.176 74.648,15.384 75.584,15.592 L77.04,7.896 C76.312,7.584 75.428,7.376 73.816,7.376 C71.268,7.376 68.356,8.936 66.432,12.472 L66.224,12.472 L65.6,8 L58.32,8 L58.32,34 Z M80.056,34 L89,34 L89,16.944 C90.352,15.696 91.288,14.968 92.952,14.968 C94.72,14.968 95.552,15.8 95.552,19.128 L95.552,34 L104.496,34 L104.496,17.984 C104.496,11.536 102.104,7.376 96.384,7.376 C92.848,7.376 90.248,9.144 88.168,11.12 L87.96,11.12 L87.336,8 L80.056,8 L80.056,34 Z M121.968,34 L130.912,34 L130.912,21.624 L142.144,21.624 L142.144,14.136 L130.912,14.136 L130.912,7.688 L144.016,7.688 L144.016,0.2 L121.968,0.2 L121.968,34 Z M146.72,21 C146.72,29.632 152.96,34.624 159.616,34.624 C166.272,34.624 172.512,29.632 172.512,21 C172.512,12.368 166.272,7.376 159.616,7.376 C152.96,7.376 146.72,12.368 146.72,21 L146.72,21 Z M155.872,21 C155.872,17.048 156.912,14.552 159.616,14.552 C162.32,14.552 163.36,17.048 163.36,21 C163.36,24.952 162.32,27.448 159.616,27.448 C156.912,27.448 155.872,24.952 155.872,21 L155.872,21 Z M177.192,24.848 C177.192,30.672 179.168,34.624 185.2,34.624 C187.176,34.624 188.632,34.312 189.568,33.896 L188.528,27.344 C188.112,27.448 187.904,27.448 187.592,27.448 C186.968,27.448 186.136,26.928 186.136,25.16 L186.136,-2.192 L177.192,-2.192 L177.192,24.848 Z M192.688,24.848 C192.688,30.672 194.664,34.624 200.696,34.624 C202.672,34.624 204.128,34.312 205.064,33.896 L204.024,27.344 C203.608,27.448 203.4,27.448 203.088,27.448 C202.464,27.448 201.632,26.928 201.632,25.16 L201.632,-2.192 L192.688,-2.192 L192.688,24.848 Z M206.832,21 C206.832,29.632 213.072,34.624 219.728,34.624 C226.384,34.624 232.624,29.632 232.624,21 C232.624,12.368 226.384,7.376 219.728,7.376 C213.072,7.376 206.832,12.368 206.832,21 L206.832,21 Z M215.984,21 C215.984,17.048 217.024,14.552 219.728,14.552 C222.432,14.552 223.472,17.048 223.472,21 C223.472,24.952 222.432,27.448 219.728,27.448 C217.024,27.448 215.984,24.952 215.984,21 L215.984,21 Z M241.256,34 L251.448,34 L253.216,24.952 C253.632,22.56 253.944,20.168 254.36,17.308 L254.568,17.308 C254.984,20.168 255.4,22.56 255.816,24.952 L257.688,34 L268.088,34 L274.016,8 L265.8,8 L263.824,18.92 C263.408,21.52 263.2,24.12 262.784,26.824 L262.576,26.824 C262.056,24.12 261.64,21.52 261.016,18.92 L258.52,8 L250.928,8 L248.536,18.92 C247.912,21.416 247.496,24.12 247.08,26.824 L246.872,26.824 C246.456,24.12 246.248,21.52 245.832,18.92 L243.856,8 L235.016,8 L241.256,34 Z M276.408,21 C276.408,29.632 282.232,34.624 289.824,34.624 C292.736,34.624 296.48,33.584 299.288,31.608 L296.376,26.304 C294.504,27.344 292.84,27.864 291.072,27.864 C288.16,27.864 285.872,26.824 285.04,23.496 L299.86,23.496 C300.016,22.872 300.224,21.52 300.224,19.96 C300.224,12.992 296.584,7.376 288.888,7.376 C282.544,7.376 276.408,12.576 276.408,21 L276.408,21 Z M284.936,18.088 C285.456,15.228 287.12,14.136 289.096,14.136 C291.8,14.136 292.632,15.904 292.632,18.088 L284.936,18.088 Z M305.112,34 L314.056,34 L314.056,19.544 C315.304,16.32 317.592,15.176 319.464,15.176 C320.608,15.176 321.44,15.384 322.376,15.592 L323.832,7.896 C323.104,7.584 322.22,7.376 320.608,7.376 C318.06,7.376 315.148,8.936 313.224,12.472 L313.016,12.472 L312.392,8 L305.112,8 L305.112,34 Z M324.248,30.984 C326.952,33.168 331.008,34.624 334.336,34.624 C341.616,34.624 345.464,30.88 345.464,25.992 C345.464,21.312 341.928,19.336 338.808,18.192 C336.208,17.256 333.92,16.736 333.92,15.384 C333.92,14.344 334.7,13.928 336.208,13.928 C337.82,13.928 339.64,14.76 341.512,16.112 L345.464,10.808 C343.176,9.092 340.16,7.376 335.896,7.376 C329.76,7.376 325.6,10.704 325.6,15.8 C325.6,20.064 329.136,22.3 332.152,23.496 C334.752,24.536 337.144,25.16 337.144,26.512 C337.144,27.552 336.416,28.072 334.544,28.072 C332.724,28.072 330.592,27.24 328.2,25.472 L324.248,30.984 Z M1.744,87 L10.688,87 L10.688,53.2 L1.744,53.2 L1.744,87 Z M17.448,87 L26.392,87 L26.392,69.944 C27.744,68.696 28.68,67.968 30.344,67.968 C32.112,67.968 32.944,68.8 32.944,72.128 L32.944,87 L41.888,87 L41.888,70.984 C41.888,64.536 39.496,60.376 33.776,60.376 C30.24,60.376 27.64,62.144 25.56,64.12 L25.352,64.12 L24.728,61 L17.448,61 L17.448,87 Z M48.856,77.016 C48.856,83.36 51.664,87.624 58.424,87.624 C61.284,87.624 63.208,87.104 64.56,86.688 L63.208,80.24 C62.584,80.448 61.752,80.656 60.92,80.656 C59.256,80.656 57.8,79.72 57.8,76.86 L57.8,67.968 L63.728,67.968 L63.728,61 L57.8,61 L57.8,54.24 L50.416,54.24 L49.376,61 L45.424,61.312 L45.424,67.968 L48.856,67.968 L48.856,77.016 Z M66.64,74 C66.64,82.632 72.88,87.624 79.536,87.624 C86.192,87.624 92.432,82.632 92.432,74 C92.432,65.368 86.192,60.376 79.536,60.376 C72.88,60.376 66.64,65.368 66.64,74 L66.64,74 Z M75.792,74 C75.792,70.048 76.832,67.552 79.536,67.552 C82.24,67.552 83.28,70.048 83.28,74 C83.28,77.952 82.24,80.448 79.536,80.448 C76.832,80.448 75.792,77.952 75.792,74 L75.792,74 Z M117.704,60.272 L120.928,60.272 C124.464,60.272 126.336,61.208 126.336,64.12 C126.336,67.032 124.464,68.592 120.928,68.592 L117.704,68.592 L117.704,60.272 Z M136.944,87 L129.612,73.896 C132.888,72.128 135.072,68.956 135.072,64.12 C135.072,55.696 128.832,53.2 121.552,53.2 L108.76,53.2 L108.76,87 L117.704,87 L117.704,75.664 L121.136,75.664 L126.96,87 L136.944,87 Z M138.92,74 C138.92,82.632 144.744,87.624 152.336,87.624 C155.248,87.624 158.992,86.584 161.8,84.608 L158.888,79.304 C157.016,80.344 155.352,80.864 153.584,80.864 C150.672,80.864 148.384,79.824 147.552,76.496 L162.372,76.496 C162.528,75.872 162.736,74.52 162.736,72.96 C162.736,65.992 159.096,60.376 151.4,60.376 C145.056,60.376 138.92,65.576 138.92,74 L138.92,74 Z M147.448,71.088 C147.968,68.228 149.632,67.136 151.608,67.136 C154.312,67.136 155.144,68.904 155.144,71.088 L147.448,71.088 Z M173.24,87 L183.536,87 L191.752,61 L183.224,61 L180.416,72.336 C179.792,74.936 179.168,77.64 178.544,80.448 L178.336,80.448 C177.712,77.64 177.088,74.936 176.464,72.336 L173.656,61 L164.712,61 L173.24,87 Z M193.52,74 C193.52,82.632 199.344,87.624 206.936,87.624 C209.848,87.624 213.592,86.584 216.4,84.608 L213.488,79.304 C211.616,80.344 209.952,80.864 208.184,80.864 C205.272,80.864 202.984,79.824 202.152,76.496 L216.972,76.496 C217.128,75.872 217.336,74.52 217.336,72.96 C217.336,65.992 213.696,60.376 206,60.376 C199.656,60.376 193.52,65.576 193.52,74 L193.52,74 Z M202.048,71.088 C202.568,68.228 204.232,67.136 206.208,67.136 C208.912,67.136 209.744,68.904 209.744,71.088 L202.048,71.088 Z M222.224,87 L231.168,87 L231.168,69.944 C232.52,68.696 233.456,67.968 235.12,67.968 C236.888,67.968 237.72,68.8 237.72,72.128 L237.72,87 L246.664,87 L246.664,70.984 C246.664,64.536 244.272,60.376 238.552,60.376 C235.016,60.376 232.416,62.144 230.336,64.12 L230.128,64.12 L229.504,61 L222.224,61 L222.224,87 Z M252.28,77.016 C252.28,83.464 254.672,87.624 260.392,87.624 C263.928,87.624 266.32,86.064 268.4,83.568 L268.608,83.568 L269.232,87 L276.512,87 L276.512,61 L267.568,61 L267.568,77.744 C266.424,79.408 265.488,80.032 263.824,80.032 C262.056,80.032 261.224,79.2 261.224,75.872 L261.224,61 L252.28,61 L252.28,77.016 Z M281.192,74 C281.192,82.632 287.016,87.624 294.608,87.624 C297.52,87.624 301.264,86.584 304.072,84.608 L301.16,79.304 C299.288,80.344 297.624,80.864 295.856,80.864 C292.944,80.864 290.656,79.824 289.824,76.496 L304.644,76.496 C304.8,75.872 305.008,74.52 305.008,72.96 C305.008,65.992 301.368,60.376 293.672,60.376 C287.328,60.376 281.192,65.576 281.192,74 L281.192,74 Z M289.72,71.088 C290.24,68.228 291.904,67.136 293.88,67.136 C296.584,67.136 297.416,68.904 297.416,71.088 L289.72,71.088 Z" id="Turn-Followers" sketch:type="MSShapeGroup"></path>
            <path d="M2.888,132 L5.264,132 L7.592,122.52 C7.856,121.296 8.144,120.168 8.384,118.944 L8.48,118.944 C8.72,120.168 8.96,121.296 9.248,122.52 L11.624,132 L14.024,132 L17.288,116.256 L15.368,116.256 L13.712,124.824 C13.4,126.504 13.112,128.208 12.824,129.912 L12.728,129.912 C12.344,128.208 11.96,126.48 11.576,124.824 L9.392,116.256 L7.568,116.256 L5.384,124.824 C5.024,126.504 4.64,128.208 4.28,129.912 L4.184,129.912 C3.896,128.208 3.56,126.528 3.272,124.824 L1.616,116.256 L-0.448,116.256 L2.888,132 Z M20.84,117.936 C21.608,117.936 22.208,117.408 22.208,116.664 C22.208,115.896 21.608,115.392 20.84,115.392 C20.072,115.392 19.472,115.896 19.472,116.664 C19.472,117.408 20.072,117.936 20.84,117.936 L20.84,117.936 Z M19.832,132 L21.8,132 L21.8,120.336 L19.832,120.336 L19.832,132 Z M26.072,128.4 C26.072,130.704 26.912,132.288 29.408,132.288 C30.128,132.288 30.92,132.072 31.568,131.856 L31.184,130.368 C30.8,130.512 30.272,130.68 29.864,130.68 C28.52,130.68 28.064,129.864 28.064,128.424 L28.064,121.944 L31.208,121.944 L31.208,120.336 L28.064,120.336 L28.064,117.072 L26.408,117.072 L26.168,120.336 L24.344,120.456 L24.344,121.944 L26.072,121.944 L26.072,128.4 Z M33.848,132 L35.816,132 L35.816,123.552 C36.992,122.376 37.808,121.752 39.008,121.752 C40.544,121.752 41.216,122.688 41.216,124.872 L41.216,132 L43.184,132 L43.184,124.608 C43.184,121.632 42.08,120.048 39.632,120.048 C38.024,120.048 36.848,120.912 35.744,121.968 L35.816,119.568 L35.816,114.912 L33.848,114.912 L33.848,132 Z M50.96,135.216 L50.576,136.776 C50.96,136.92 51.416,137.016 51.944,137.016 C54.296,137.016 55.496,135.264 56.312,132.96 L60.704,120.336 L58.784,120.336 L56.696,126.792 C56.384,127.824 56.048,129.024 55.712,130.08 L55.616,130.08 C55.256,129 54.848,127.8 54.488,126.792 L52.112,120.336 L50.072,120.336 L54.752,132.024 L54.488,132.888 C54.008,134.328 53.168,135.384 51.848,135.384 C51.56,135.384 51.2,135.288 50.96,135.216 L50.96,135.216 Z M62,126.192 C62,130.056 64.544,132.288 67.4,132.288 C70.256,132.288 72.8,130.056 72.8,126.192 C72.8,122.28 70.256,120.048 67.4,120.048 C64.544,120.048 62,122.28 62,126.192 L62,126.192 Z M64.04,126.192 C64.04,123.504 65.408,121.68 67.4,121.68 C69.416,121.68 70.76,123.504 70.76,126.192 C70.76,128.856 69.416,130.656 67.4,130.656 C65.408,130.656 64.04,128.856 64.04,126.192 L64.04,126.192 Z M75.704,127.728 C75.704,130.704 76.808,132.288 79.28,132.288 C80.888,132.288 82.04,131.448 83.12,130.176 L83.192,130.176 L83.36,132 L84.992,132 L84.992,120.336 L83.024,120.336 L83.024,128.616 C81.92,129.984 81.08,130.584 79.88,130.584 C78.344,130.584 77.696,129.648 77.696,127.464 L77.696,120.336 L75.704,120.336 L75.704,127.728 Z M88.928,132 L90.896,132 L90.896,124.512 C91.688,122.544 92.864,121.824 93.848,121.824 C94.328,121.824 94.592,121.896 94.976,122.016 L95.36,120.288 C94.976,120.12 94.616,120.048 94.112,120.048 C92.792,120.048 91.592,120.984 90.8,122.448 L90.728,122.448 L90.56,120.336 L88.928,120.336 L88.928,132 Z M101.24,126.192 C101.24,130.056 103.784,132.288 106.64,132.288 C109.496,132.288 112.04,130.056 112.04,126.192 C112.04,122.28 109.496,120.048 106.64,120.048 C103.784,120.048 101.24,122.28 101.24,126.192 L101.24,126.192 Z M103.28,126.192 C103.28,123.504 104.648,121.68 106.64,121.68 C108.656,121.68 110,123.504 110,126.192 C110,128.856 108.656,130.656 106.64,130.656 C104.648,130.656 103.28,128.856 103.28,126.192 L103.28,126.192 Z M116.864,132 L119.168,132 L120.8,125.76 C121.112,124.656 121.352,123.552 121.616,122.376 L121.712,122.376 C122,123.552 122.216,124.632 122.504,125.736 L124.184,132 L126.584,132 L129.704,120.336 L127.832,120.336 L126.128,127.08 C125.888,128.184 125.672,129.24 125.408,130.32 L125.312,130.32 C125.048,129.24 124.784,128.184 124.496,127.08 L122.672,120.336 L120.752,120.336 L118.952,127.08 C118.664,128.16 118.424,129.24 118.16,130.32 L118.064,130.32 C117.848,129.24 117.632,128.184 117.368,127.08 L115.64,120.336 L113.624,120.336 L116.864,132 Z M132.248,132 L134.216,132 L134.216,123.552 C135.392,122.376 136.208,121.752 137.408,121.752 C138.944,121.752 139.616,122.688 139.616,124.872 L139.616,132 L141.584,132 L141.584,124.608 C141.584,121.632 140.48,120.048 138.032,120.048 C136.424,120.048 135.224,120.912 134.12,122.016 L134.048,122.016 L133.88,120.336 L132.248,120.336 L132.248,132 Z M148.928,130.68 C150.032,131.592 151.616,132.288 153.272,132.288 C156.032,132.288 157.544,130.704 157.544,128.808 C157.544,126.6 155.672,125.904 153.992,125.28 C152.672,124.776 151.4,124.368 151.4,123.264 C151.4,122.376 152.072,121.584 153.536,121.584 C154.568,121.584 155.408,122.016 156.2,122.616 L157.136,121.368 C156.248,120.648 154.976,120.048 153.512,120.048 C150.992,120.048 149.504,121.488 149.504,123.36 C149.504,125.328 151.328,126.12 152.984,126.72 C154.256,127.2 155.648,127.728 155.648,128.928 C155.648,129.936 154.88,130.752 153.344,130.752 C151.952,130.752 150.92,130.176 149.912,129.36 L148.928,130.68 Z M160.616,128.4 C160.616,130.704 161.456,132.288 163.952,132.288 C164.672,132.288 165.464,132.072 166.112,131.856 L165.728,130.368 C165.344,130.512 164.816,130.68 164.408,130.68 C163.064,130.68 162.608,129.864 162.608,128.424 L162.608,121.944 L165.752,121.944 L165.752,120.336 L162.608,120.336 L162.608,117.072 L160.952,117.072 L160.712,120.336 L158.888,120.456 L158.888,121.944 L160.616,121.944 L160.616,128.4 Z M168.392,132 L170.36,132 L170.36,124.512 C171.152,122.544 172.328,121.824 173.312,121.824 C173.792,121.824 174.056,121.896 174.44,122.016 L174.824,120.288 C174.44,120.12 174.08,120.048 173.576,120.048 C172.256,120.048 171.056,120.984 170.264,122.448 L170.192,122.448 L170.024,120.336 L168.392,120.336 L168.392,132 Z M175.616,126.192 C175.616,130.008 178.088,132.288 181.208,132.288 C182.792,132.288 184.04,131.736 185.048,131.088 L184.352,129.792 C183.488,130.344 182.552,130.704 181.448,130.704 C179.216,130.704 177.704,129.12 177.56,126.6 L185.432,126.6 C185.48,126.312 185.504,125.928 185.504,125.52 C185.504,122.184 183.824,120.048 180.848,120.048 C178.184,120.048 175.616,122.376 175.616,126.192 L175.616,126.192 Z M177.536,125.304 C177.776,122.952 179.264,121.608 180.896,121.608 C182.72,121.608 183.776,122.928 183.776,125.304 L177.536,125.304 Z M187.472,128.976 C187.472,131.064 188.936,132.288 190.904,132.288 C192.344,132.288 193.64,131.52 194.768,130.608 L194.816,130.608 L194.984,132 L196.616,132 L196.616,124.848 C196.616,121.944 195.416,120.048 192.56,120.048 C190.688,120.048 189.056,120.864 187.976,121.56 L188.768,122.928 C189.68,122.304 190.88,121.68 192.248,121.68 C194.144,121.68 194.648,123.12 194.648,124.608 C189.68,125.16 187.472,126.432 187.472,128.976 L187.472,128.976 Z M189.416,128.832 C189.416,127.344 190.736,126.384 194.648,125.904 L194.648,129.144 C193.52,130.152 192.584,130.704 191.456,130.704 C190.304,130.704 189.416,130.152 189.416,128.832 L189.416,128.832 Z M200.336,132 L202.304,132 L202.304,123.552 C203.384,122.352 204.368,121.752 205.232,121.752 C206.72,121.752 207.416,122.688 207.416,124.872 L207.416,132 L209.384,132 L209.384,123.552 C210.464,122.352 211.4,121.752 212.312,121.752 C213.776,121.752 214.472,122.688 214.472,124.872 L214.472,132 L216.44,132 L216.44,124.608 C216.44,121.632 215.288,120.048 212.888,120.048 C211.472,120.048 210.272,120.96 209.048,122.28 C208.568,120.888 207.608,120.048 205.832,120.048 C204.44,120.048 203.216,120.912 202.208,122.016 L202.136,122.016 L201.968,120.336 L200.336,120.336 L200.336,132 Z M221.24,117.936 C222.008,117.936 222.608,117.408 222.608,116.664 C222.608,115.896 222.008,115.392 221.24,115.392 C220.472,115.392 219.872,115.896 219.872,116.664 C219.872,117.408 220.472,117.936 221.24,117.936 L221.24,117.936 Z M220.232,132 L222.2,132 L222.2,120.336 L220.232,120.336 L220.232,132 Z M226.136,132 L228.104,132 L228.104,123.552 C229.28,122.376 230.096,121.752 231.296,121.752 C232.832,121.752 233.504,122.688 233.504,124.872 L233.504,132 L235.472,132 L235.472,124.608 C235.472,121.632 234.368,120.048 231.92,120.048 C230.312,120.048 229.112,120.912 228.008,122.016 L227.936,122.016 L227.768,120.336 L226.136,120.336 L226.136,132 Z M240.104,133.968 C240.104,133.296 240.464,132.6 241.304,132 C241.808,132.144 242.36,132.192 242.816,132.192 L244.832,132.192 C246.344,132.192 247.184,132.552 247.184,133.632 C247.184,134.856 245.72,136.008 243.488,136.008 C241.376,136.008 240.104,135.216 240.104,133.968 L240.104,133.968 Z M238.376,134.232 C238.376,136.248 240.344,137.376 243.2,137.376 C246.824,137.376 249.104,135.504 249.104,133.344 C249.104,131.4 247.736,130.56 245.024,130.56 L242.768,130.56 C241.184,130.56 240.704,130.032 240.704,129.288 C240.704,128.64 241.04,128.256 241.448,127.896 C241.976,128.16 242.624,128.304 243.2,128.304 C245.576,128.304 247.472,126.744 247.472,124.248 C247.472,123.264 247.064,122.376 246.512,121.848 L248.912,121.848 L248.912,120.336 L244.856,120.336 C244.424,120.168 243.848,120.048 243.2,120.048 C240.824,120.048 238.808,121.656 238.808,124.2 C238.808,125.592 239.552,126.72 240.32,127.344 L240.32,127.44 C239.72,127.848 239.048,128.616 239.048,129.6 C239.048,130.512 239.504,131.136 240.08,131.496 L240.08,131.592 C239.024,132.312 238.376,133.248 238.376,134.232 L238.376,134.232 Z M243.2,126.984 C241.856,126.984 240.728,125.904 240.728,124.2 C240.728,122.496 241.832,121.488 243.2,121.488 C244.568,121.488 245.672,122.496 245.672,124.2 C245.672,125.904 244.544,126.984 243.2,126.984 L243.2,126.984 Z M255.632,128.976 C255.632,131.064 257.096,132.288 259.064,132.288 C260.504,132.288 261.8,131.52 262.928,130.608 L262.976,130.608 L263.144,132 L264.776,132 L264.776,124.848 C264.776,121.944 263.576,120.048 260.72,120.048 C258.848,120.048 257.216,120.864 256.136,121.56 L256.928,122.928 C257.84,122.304 259.04,121.68 260.408,121.68 C262.304,121.68 262.808,123.12 262.808,124.608 C257.84,125.16 255.632,126.432 255.632,128.976 L255.632,128.976 Z M257.576,128.832 C257.576,127.344 258.896,126.384 262.808,125.904 L262.808,129.144 C261.68,130.152 260.744,130.704 259.616,130.704 C258.464,130.704 257.576,130.152 257.576,128.832 L257.576,128.832 Z M270.416,130.944 C271.496,131.784 272.576,132.288 273.656,132.288 C276.32,132.288 278.696,129.96 278.696,126 C278.696,122.376 277.088,120.048 274.088,120.048 C272.72,120.048 271.424,120.792 270.368,121.68 L270.296,121.68 L270.128,120.336 L268.496,120.336 L268.496,136.92 L270.464,136.92 L270.464,132.984 L270.416,130.944 Z M270.464,129.408 L270.464,123.288 C271.616,122.256 272.6,121.704 273.584,121.704 C275.792,121.704 276.656,123.432 276.656,126 C276.656,128.88 275.24,130.632 273.32,130.632 C272.552,130.632 271.52,130.296 270.464,129.408 L270.464,129.408 Z M283.736,130.944 C284.816,131.784 285.896,132.288 286.976,132.288 C289.64,132.288 292.016,129.96 292.016,126 C292.016,122.376 290.408,120.048 287.408,120.048 C286.04,120.048 284.744,120.792 283.688,121.68 L283.616,121.68 L283.448,120.336 L281.816,120.336 L281.816,136.92 L283.784,136.92 L283.784,132.984 L283.736,130.944 Z M283.784,129.408 L283.784,123.288 C284.936,122.256 285.92,121.704 286.904,121.704 C289.112,121.704 289.976,123.432 289.976,126 C289.976,128.88 288.56,130.632 286.64,130.632 C285.872,130.632 284.84,130.296 283.784,129.408 L283.784,129.408 Z" id="With-your-own-stream" sketch:type="MSShapeGroup"></path>
        </g>
    </g>
</svg>